<?xml version="1.0" encoding="utf-8"?>
<!-- Generator: Adobe Illustrator 24.0.2, SVG Export Plug-In . SVG Version: 6.00 Build 0)  -->
<svg version="1.1" id="Layer_1" xmlns="http://www.w3.org/2000/svg" xmlns:xlink="http://www.w3.org/1999/xlink" x="0px" y="0px"
	 viewBox="0 0 512 512" enable-background="new 0 0 512 512" xml:space="preserve">
<g>
	<g>
		<polygon fill="#77D0DE" points="29.4,339.1 29.4,113.5 482.4,113.5 394.8,228.2 304.7,162.1 209.7,288.3 142.4,196 		"/>
	</g>
	<g>
		<g>
			<polygon fill="#92E0EA" points="471.8,396.8 471.8,127.6 462.1,140.3 462.1,396.8 			"/>
		</g>
		<g>
			<polygon fill="#92E0EA" points="453.8,396.8 453.8,151.3 444.1,164 444.1,396.8 			"/>
		</g>
		<g>
			<polygon fill="#92E0EA" points="435.7,396.8 435.7,175 426,187.8 426,396.8 			"/>
		</g>
		<g>
			<polygon fill="#92E0EA" points="417.7,396.8 417.7,198.7 408,211.5 408,396.8 			"/>
		</g>
		<g>
			<polygon fill="#92E0EA" points="399.7,396.8 399.7,222.4 393,231.2 390,228.8 390,396.8 			"/>
		</g>
		<g>
			<polygon fill="#92E0EA" points="381.6,396.8 381.6,222.3 371.9,214.7 371.9,396.8 			"/>
		</g>
		<g>
			<polygon fill="#92E0EA" points="363.6,396.8 363.6,208.2 353.9,200.6 353.9,396.8 			"/>
		</g>
		<g>
			<polygon fill="#92E0EA" points="345.6,396.8 345.6,194.1 335.9,186.5 335.9,396.8 			"/>
		</g>
		<g>
			<polygon fill="#92E0EA" points="327.6,396.8 327.6,180 317.9,172.4 317.9,396.8 			"/>
		</g>
		<g>
			<polygon fill="#92E0EA" points="309.5,396.8 309.5,165.9 304.7,162.1 299.8,168.6 299.8,396.8 			"/>
		</g>
		<g>
			<polygon fill="#92E0EA" points="291.5,396.8 291.5,179.8 281.8,192.9 281.8,396.8 			"/>
		</g>
		<g>
			<polygon fill="#92E0EA" points="273.5,396.8 273.5,204.2 263.8,217.2 263.8,396.8 			"/>
		</g>
		<g>
			<polygon fill="#92E0EA" points="255.4,396.8 255.4,228.5 245.7,241.6 245.7,396.8 			"/>
		</g>
		<g>
			<polygon fill="#92E0EA" points="237.4,396.8 237.4,252.8 227.7,265.9 227.7,396.8 			"/>
		</g>
		<g>
			<polygon fill="#92E0EA" points="219.4,396.8 219.4,277.1 209.7,290.2 209.7,396.8 			"/>
		</g>
		<g>
			<polygon fill="#92E0EA" points="201.4,396.8 201.4,278.6 191.7,265 191.7,396.8 			"/>
		</g>
		<g>
			<polygon fill="#92E0EA" points="183.3,396.8 183.3,253.3 173.6,239.7 173.6,396.8 			"/>
		</g>
		<g>
			<polygon fill="#92E0EA" points="165.3,396.8 165.3,228 155.6,214.4 155.6,396.8 			"/>
		</g>
		<g>
			<polygon fill="#92E0EA" points="147.3,396.8 147.3,202.8 142.4,196 137.6,202.1 137.6,396.8 			"/>
		</g>
		<g>
			<polygon fill="#92E0EA" points="129.2,396.8 129.2,212.7 119.5,225 119.5,396.8 			"/>
		</g>
		<g>
			<polygon fill="#92E0EA" points="111.2,396.8 111.2,235.5 101.5,247.8 101.5,396.8 			"/>
		</g>
		<g>
			<polygon fill="#92E0EA" points="93.2,396.8 93.2,258.3 83.5,270.6 83.5,396.8 			"/>
		</g>
		<g>
			<polygon fill="#92E0EA" points="75.2,396.8 75.2,281.2 65.5,293.5 65.5,396.8 			"/>
		</g>
		<g>
			<polygon fill="#92E0EA" points="57.1,396.8 57.1,304 47.4,316.3 47.4,396.8 			"/>
		</g>
		<g>
			<polygon fill="#92E0EA" points="39.1,396.8 39.1,326.9 29.4,339.1 29.8,396.8 			"/>
		</g>
	</g>
	<g>
		<g>
			<g>
				<path fill="#353F49" d="M349.9,354.8c0,39.6-32.1,71.6-71.6,71.6c-39.6,0-71.6-32.1-71.6-71.6c0-39.6,32.1-71.6,71.6-71.6
					C317.8,283.2,349.9,315.3,349.9,354.8z"/>
			</g>
		</g>
		<g>
			<g>
				<circle fill="#FF916E" cx="278.3" cy="354.8" r="66.9"/>
			</g>
		</g>
		<g>
			<g>
				<path fill="#F77B55" d="M341,354.8c0,34.6-28.1,62.7-62.7,62.7s-62.7-28.1-62.7-62.7s28.1-62.7,62.7-62.7S341,320.2,341,354.8z"
					/>
			</g>
		</g>
		<g>
			<g>
				<path fill="#FFFFFF" d="M333.8,354.8c0,30.7-24.9,55.5-55.5,55.5s-55.5-24.9-55.5-55.5c0-30.7,24.9-55.5,55.5-55.5
					S333.8,324.2,333.8,354.8z"/>
			</g>
		</g>
		<g>
			<g>
				<g>
					<polygon fill="#353F49" points="278.3,359.4 250.6,343.4 253.1,339 278.3,353.5 314.7,331.7 317.2,336.2 					"/>
				</g>
			</g>
		</g>
		<g>
			<g>
				<path fill="#F77B55" d="M285.3,354.8c0,3.9-3.1,7-7,7c-3.9,0-7-3.1-7-7c0-3.9,3.1-7,7-7C282.1,347.8,285.3,350.9,285.3,354.8z"
					/>
			</g>
		</g>
		<g>
			<g>
				<path fill="#353F49" d="M280.5,305.8c0,1.2-1,2.3-2.2,2.3c-1.2,0-2.2-1-2.2-2.3c0-1.2,1-2.2,2.2-2.2
					C279.5,303.6,280.5,304.6,280.5,305.8z"/>
			</g>
		</g>
		<g>
			<g>
				<path fill="#353F49" d="M255.7,311.3c0.6,1.1,0.3,2.5-0.8,3.1c-1.1,0.6-2.5,0.3-3.1-0.8c-0.6-1.1-0.3-2.5,0.8-3.1
					C253.7,309.8,255.1,310.2,255.7,311.3z"/>
			</g>
		</g>
		<g>
			<g>
				<path fill="#353F49" d="M237,328.4c1.1,0.6,1.4,2,0.8,3.1c-0.6,1.1-2,1.4-3.1,0.8c-1.1-0.6-1.4-2-0.8-3.1
					C234.5,328.1,235.9,327.8,237,328.4z"/>
			</g>
		</g>
		<g>
			<g>
				<path fill="#353F49" d="M229.3,352.6c1.2,0,2.2,1,2.2,2.3c0,1.2-1,2.2-2.2,2.2c-1.2,0-2.3-1-2.3-2.2
					C227,353.6,228,352.6,229.3,352.6z"/>
			</g>
		</g>
		<g>
			<g>
				<path fill="#353F49" d="M234.7,377.4c1.1-0.6,2.5-0.3,3.1,0.8c0.6,1.1,0.3,2.5-0.8,3.1c-1.1,0.6-2.4,0.3-3.1-0.8
					C233.3,379.4,233.6,378,234.7,377.4z"/>
			</g>
		</g>
		<g>
			<g>
				<path fill="#353F49" d="M251.8,396.1c0.6-1.1,2-1.5,3.1-0.8c1.1,0.6,1.5,2,0.8,3.1c-0.6,1.1-2,1.5-3.1,0.8
					C251.6,398.6,251.2,397.2,251.8,396.1z"/>
			</g>
		</g>
		<g>
			<g>
				<path fill="#353F49" d="M276,403.8c0-1.2,1-2.3,2.2-2.3c1.2,0,2.2,1,2.2,2.3c0,1.2-1,2.2-2.2,2.2C277,406.1,276,405.1,276,403.8
					z"/>
			</g>
		</g>
		<g>
			<g>
				<path fill="#353F49" d="M300.8,398.4c-0.6-1.1-0.3-2.4,0.8-3.1c1.1-0.6,2.5-0.3,3.1,0.8c0.6,1.1,0.3,2.4-0.8,3.1
					C302.8,399.8,301.4,399.5,300.8,398.4z"/>
			</g>
		</g>
		<g>
			<g>
				<path fill="#353F49" d="M319.6,381.3c-1.1-0.6-1.5-2-0.8-3.1c0.6-1.1,2-1.4,3.1-0.8c1.1,0.6,1.4,2,0.8,3.1
					C322,381.5,320.6,381.9,319.6,381.3z"/>
			</g>
		</g>
		<g>
			<g>
				<path fill="#353F49" d="M327.3,357.1c-1.2,0-2.2-1-2.2-2.2c0-1.2,1-2.3,2.2-2.3c1.2,0,2.2,1,2.2,2.3
					C329.5,356.1,328.5,357.1,327.3,357.1z"/>
			</g>
		</g>
		<g>
			<g>
				<path fill="#353F49" d="M321.8,332.3c-1.1,0.6-2.4,0.3-3.1-0.8c-0.6-1.1-0.2-2.5,0.8-3.1c1.1-0.6,2.4-0.2,3.1,0.8
					C323.3,330.3,322.9,331.7,321.8,332.3z"/>
			</g>
		</g>
		<g>
			<g>
				<path fill="#353F49" d="M304.7,313.5c-0.6,1.1-2,1.4-3.1,0.8c-1.1-0.6-1.4-2-0.8-3.1c0.6-1.1,2-1.4,3.1-0.8
					C305,311.1,305.3,312.4,304.7,313.5z"/>
			</g>
		</g>
	</g>
	<g>
		<polygon fill="#F77B55" points="25.5,350 19.7,345.4 142.6,189.8 209.7,283.9 304,156.8 392.4,225.9 479.5,111.3 485.4,115.8 
			393.7,236.4 305.4,167.4 209.6,296.6 142.3,202.2 		"/>
	</g>
	<g>
		<path fill="#F77B55" d="M33.4,346.5c0,5.9-4.8,10.8-10.8,10.8c-6,0-10.8-4.8-10.8-10.8c0-5.9,4.8-10.8,10.8-10.8
			C28.6,335.7,33.4,340.6,33.4,346.5z"/>
	</g>
	<g>
		<path fill="#F77B55" d="M153.2,196c0,6-4.8,10.8-10.8,10.8c-5.9,0-10.8-4.8-10.8-10.8c0-5.9,4.8-10.8,10.8-10.8
			C148.4,185.2,153.2,190,153.2,196z"/>
	</g>
	<g>
		<circle fill="#F77B55" cx="209.7" cy="288.3" r="10.8"/>
	</g>
	<g>
		<path fill="#F77B55" d="M315.5,162.1c0,5.9-4.8,10.8-10.8,10.8c-6,0-10.8-4.8-10.8-10.8c0-5.9,4.8-10.8,10.8-10.8
			C310.6,151.3,315.5,156.1,315.5,162.1z"/>
	</g>
	<g>
		<path fill="#F77B55" d="M405.6,228.2c0,6-4.8,10.8-10.8,10.8c-5.9,0-10.8-4.8-10.8-10.8c0-5.9,4.8-10.8,10.8-10.8
			C400.8,217.4,405.6,222.2,405.6,228.2z"/>
	</g>
	<g>
		<g>
			<polygon fill="#F77B55" points="499.8,90.4 462.1,113.4 487.7,132.9 			"/>
		</g>
	</g>
</g>
</svg>
