<svg height="610pt" viewBox="-19 -47 610.66912 610" width="610pt" xmlns="http://www.w3.org/2000/svg"><path d="m276.628906 163.234375h-.015625c-6.207031 0-11.238281 5.03125-11.25 11.234375l-.035156 26.390625c-.050781 27.972656-19.882813 52.007813-47.335937 57.363281l.183593-129.640625c.011719-6.210937-5.015625-11.253906-11.234375-11.261719h-.011718c-6.207032 0-11.242188 5.023438-11.25 11.234376l-.203126 141.960937c-.003906 6.210937 5.027344 11.253906 11.238282 11.265625h.117187c44.6875 0 80.9375-36.195312 80.996094-80.886719l.039063-26.394531c.011718-6.210938-5.023438-11.253906-11.238282-11.265625zm0 0" id="id_101" style="fill: rgb(14, 123, 145);"></path><path d="m313.507812 139.914062h-.027343c-10.007813-.007812-18.128907 8.101563-18.132813 18.109376-.007812 10.011718 8.101563 18.132812 18.109375 18.140624h.03125c10.007813.003907 18.128907-8.105468 18.132813-18.113281.003906-10.011719-8.105469-18.128906-18.113282-18.136719zm-.027343 22.5c-2.414063-.003906-4.375-1.96875-4.367188-4.378906 0-2.417968 1.960938-4.375 4.378907-4.371094 2.417968 0 4.371093 1.957032 4.371093 4.375 0 2.417969-1.964843 4.375-4.382812 4.375zm0 0" id="id_102" style="fill: rgb(12, 172, 204);"></path><path d="m568.242188 138.460938c-16.996094-84.234376-77.894532-138.664063-155.144532-138.664063-40.394531 0-84.085937 15.527344-126.789062 44.980469-43.285156-30.769532-86.203125-46.359375-127.660156-46.359375-77.699219 0-138.335938 55.027343-154.480469 140.144531-23.578125 122.898438 51.074219 285.957031 271.003906 373.21875.195313.078125.390625.148438.589844.214844 6.726562 2.609375 14.179687 2.609375 20.90625 0 .226562-.070313.449219-.15625.667969-.246094 100.824218-40.855469 179.050781-100.75 226.210937-173.238281 41.488281-63.761719 57.371094-134.78125 44.710937-199.976563-.003906-.019531-.007812-.050781-.015624-.074218zm-425.761719 271.195312c9.09375-3.34375 17.269531-8.777344 23.878906-15.863281l110.335937.140625-.046874 88.574218c0 2.289063.695312 4.523438 2.003906 6.410157-54.785156-22.25-99.902344-49.339844-136.171875-79.261719zm315.8125-200.945312-18.152344-15.773438 11.09375.011719c3.914063.015625 7.070313 3.183593 7.070313 7.089843zm-52.5-15.828126 52.460937 45.601563-.019531 13.894531c-.011719 6.621094-5.382813 11.980469-12.003906 11.980469h-.015625l-103.453125-.144531c-16.855469-.019532-33.363281-4.792969-47.628907-13.765625-5.257812-3.242188-12.136718-1.636719-15.425781 3.589843-3.285156 5.222657-1.746093 12.121094 3.449219 15.457032 11.921875 7.488281 25.148438 12.675781 38.992188 15.273437-4.773438 3.425781-9.265626 7.234375-13.433594 11.378907-11.707032 11.636718-20.601563 25.792968-26.011719 41.386718l-99.703125-.140625.296875-202.167969c.019531-14.015624 11.390625-25.367187 25.402344-25.367187h.03125l103.070312.144531c3.878907.011719 7.515625 1.890625 9.765625 5.054688l47.484375 66.84375c4.875 6.863281 12.769531 10.945312 21.1875 10.960937zm-223.371094 167.011719 95.109375.136719c-.453125 3.78125-.71875 7.589844-.78125 11.40625l-96.972656-.125c1.242187-3.714844 2.132812-7.539062 2.644531-11.417969zm322.265625-33.648437c-43.191406 66.386718-114.464844 121.84375-206.503906 160.804687.636718-1.425781.960937-2.96875.960937-4.53125l.03125-49.683593c13.769531 13.496093 33.476563 19.035156 52.265625 14.6875l11.0625-2.554688c6.054688-1.398438 9.832032-7.4375 8.4375-13.492188l-2.554687-11.0625c-7.027344-30.464843-37.421875-49.460937-67.882813-42.4375l-1.300781.300782v-5.132813c.070313-47.667969 38.730469-86.277343 86.398437-86.277343h.144532c.449218-.003907.890625-.03125 1.335937-.085938l59.09375.082031h.050781c19.027344-.019531 34.453126-15.425781 34.5-34.445312l.074219-52.34375c.007813-16.328125-13.203125-29.582031-29.535156-29.621094l-60.996094-.089844c-.324219 0-.648437-.042969-.960937-.136719-.769532-.21875-1.445313-.699218-1.914063-1.351562l-47.484375-66.847656c-6.464844-9.085938-16.921875-14.496094-28.074218-14.523438l-103.066407-.144531h-.074219c-26.425781.003906-47.859374 21.40625-47.902343 47.828125l-.320313 216.648438c-.0625 21.5625-17.546875 39.019531-39.109375 39.046874-.042969 0-.085937 0-.128906 0-82.414063-78.179687-109.625-171.699218-94.964844-248.117187 6.988281-36.824219 23.164063-67.695313 46.785157-89.28125 23.324218-21.304687 52.925781-32.570313 85.59375-32.570313 38.621093 0 79.28125 15.722657 120.839843 46.730469 3.945313 2.941407 9.351563 2.976563 13.335938.085938 40.949219-29.726563 82.539062-45.433594 120.269531-45.433594 32.589844 0 62.234375 11.214844 85.722656 32.4375 23.65625 21.375 40.035156 51.847656 47.363282 88.136719 11.523437 59.425781-3.214844 124.542968-41.492188 183.375zm-199.234375 73.671875.109375-.027344c18.347656-4.203125 36.644531 7.230469 40.902344 25.570313l.023437.109374-.105469.023438c-18.351562 4.203125-36.644531-7.230469-40.910156-25.570312zm0 0" id="id_103" style="fill: rgb(32, 155, 179);"></path></svg>