<?xml version="1.0" encoding="UTF-8" standalone="no"?> <svg xmlns="http://www.w3.org/2000/svg" viewBox="0 0 64 64"><defs><style>.cls-1{fill:#55a6ff;}.cls-1,.cls-2,.cls-5,.cls-6{stroke:#54596e;stroke-linecap:round;stroke-linejoin:round;stroke-width:2px;}.cls-2{fill:#fff;}.cls-3{fill:#d8d8d8;}.cls-4{fill:#54596e;}.cls-5{fill:none;}.cls-6{fill:#fff35f;}</style></defs><title>dog-luxury</title><g id="dog-luxury"><polygon class="cls-1" points="54 51 14 51 14 57 34 61 54 57 54 51"/><path class="cls-2" d="M58,8,50,17.94l-8-9.87L56.42,6A1.41,1.41,0,0,1,58,8Z"/><path class="cls-2" d="M39.67,5H28.33A12.33,12.33,0,0,0,16,17.33V51l18,3,18-3V17.33A12.33,12.33,0,0,0,39.67,5Z"/><path class="cls-2" d="M21.28,9.37l-14.07,4a1.41,1.41,0,0,0-.66,2.48L15,20.14"/><circle class="cls-3" cx="26.5" cy="24.5" r="3.5"/><circle class="cls-3" cx="41.5" cy="24.5" r="3.5"/><circle class="cls-4" cx="26.5" cy="22.5" r="1.5"/><circle class="cls-4" cx="41.5" cy="22.5" r="1.5"/><path class="cls-5" d="M34,34v0Z"/><rect class="cls-4" x="31" y="31" width="6" height="4" rx="2" ry="2"/><path class="cls-2" d="M34,37.5a3.5,3.5,0,0,0,7,0"/><path class="cls-2" d="M27,37.5a3.5,3.5,0,0,0,7,0"/><line class="cls-5" x1="16" y1="17" x2="16" y2="23"/><circle class="cls-6" cx="34" cy="58" r="4"/><path class="cls-2" d="M47,6.43c0-1.83-2.23-3.31-5-3.31a6.86,6.86,0,0,0-2.64.51,6,6,0,0,0-4-1.34C33,2.29,31,3.4,30.55,4.89c-.83-.08-1.7-.12-2.6-.12C22.45,4.77,18,6.26,18,8.09c0,1.34,2.39,2.49,5.82,3,.16,2,4.54,3.62,9.93,3.62S43.69,13,43.69,11A1.88,1.88,0,0,0,43,9.67C45.3,9.36,47,8,47,6.43Z"/></g></svg>